<svg xmlns="http://www.w3.org/2000/svg" width="25" height="25" viewBox="0 0 25 25">
  <g id="Group_62539" data-name="Group 62539" transform="translate(-304 -560)">
    <rect id="Rectangle_17047" data-name="Rectangle 17047" width="25" height="25" rx="7" transform="translate(304 560)" fill="#ff4a4a"/>
    <g id="Icon_feather-shopping-cart" data-name="Icon feather-shopping-cart" transform="translate(307.811 566.41)">
      <path id="Path_91454" data-name="Path 91454" d="M13.2,30.6a.6.6,0,1,1-.6-.6A.6.6,0,0,1,13.2,30.6Z" transform="translate(-5.303 -18.109)" fill="#fff"/>
      <path id="Path_91455" data-name="Path 91455" d="M27.7,30.6a.6.6,0,1,1-.6-.6A.6.6,0,0,1,27.7,30.6Z" transform="translate(-15.209 -18.109)" fill="#fff"/>
      <path id="Path_91456" data-name="Path 91456" d="M1.5,1.5H3.9L5.5,9.528a1.2,1.2,0,0,0,1.2.965h5.827a1.2,1.2,0,0,0,1.2-.965l.959-5.03H4.5" fill="none" stroke="#fff" stroke-linecap="round" stroke-linejoin="round" stroke-width="1"/>
    </g>
  </g>
</svg>
