<svg xmlns="http://www.w3.org/2000/svg" width="22.516" height="12.083" viewBox="0 0 22.516 12.083">
  <g id="Group_62553" data-name="Group 62553" transform="translate(331.534 -145.056)">
    <path id="Path_91457" data-name="Path 91457" d="M-310.167,155.213c-.03-.267-.04-.517-.089-.759a2.025,2.025,0,0,0-2.038-1.62,2.35,2.35,0,0,0-1.843,1.023,2.718,2.718,0,0,0-.52,1.346h-7.1a6.221,6.221,0,0,0-.08-.709,2,2,0,0,0-2.08-1.656,2.341,2.341,0,0,0-1.971,1.263,2.669,2.669,0,0,0-.356,1.121c-.23,0-.458,0-.686,0-.254,0-.508,0-.762-.007a.552.552,0,0,1-.58-.62c.046-.652.1-1.3.153-1.957.017-.219.04-.438.05-.657.005-.117.046-.157.167-.155.611.006,1.222,0,1.833,0a.407.407,0,0,0,.385-.22.341.341,0,0,0-.31-.523q-1.481,0-2.961,0l-2.155,0c-.272,0-.423-.126-.422-.355a.386.386,0,0,1,.424-.4q3.614,0,7.228,0a.444.444,0,0,0,.357-.132.39.39,0,0,0,.087-.421c-.056-.151-.156-.209-.347-.209h-5.952a.879.879,0,0,1-.218-.016.316.316,0,0,1-.237-.33.406.406,0,0,1,.283-.386.79.79,0,0,1,.2-.02q2.272,0,4.544,0a.425.425,0,0,0,.369-.138.39.39,0,0,0,.064-.426.343.343,0,0,0-.354-.182q-2.588,0-5.175,0h-.249a.343.343,0,0,1-.387-.33.414.414,0,0,1,.357-.429,1.52,1.52,0,0,1,.161,0q3.108,0,6.216,0a.42.42,0,0,0,.377-.151.4.4,0,0,0,.05-.415.311.311,0,0,0-.322-.183h-2.008l-3.064,0a.325.325,0,0,1-.358-.339.383.383,0,0,1,.388-.409c.308-.006.616,0,.924,0h.566a2.856,2.856,0,0,1,.171-.444.635.635,0,0,1,.588-.317q4.728,0,9.456,0h2.3a.563.563,0,0,1,.61.637c-.035.551-.089,1.1-.134,1.649-.006.077-.008.155-.013.255h.181c.694,0,1.387,0,2.081,0a1.444,1.444,0,0,1,1.157.53c.539.631,1.068,1.27,1.616,1.893a1.8,1.8,0,0,1,.553.975,4.887,4.887,0,0,1,.007.832c-.059.862-.132,1.723-.2,2.584a.853.853,0,0,1-.317.693A.974.974,0,0,1-310.167,155.213Zm.083-4.769c-.021-.029-.03-.044-.042-.057-.513-.6-1.029-1.2-1.539-1.8a.889.889,0,0,0-.7-.34c-.523,0-1.046,0-1.568-.009-.132,0-.162.044-.17.165-.029.453-.067.905-.1,1.358-.018.227-.04.453-.061.687Z" fill="#2668d3"/>
    <path id="Path_91458" data-name="Path 91458" d="M-265.662,175.446a1.628,1.628,0,0,1,1.466,1.643,2.122,2.122,0,0,1-1.489,2.11,1.667,1.667,0,0,1-1.781-.64,2.061,2.061,0,0,1,.3-2.525A2,2,0,0,1-265.662,175.446Zm-1.194,1.981a.806.806,0,0,0,1.143.786,1.03,1.03,0,0,0,.6-1.044.8.8,0,0,0-1.118-.694A1,1,0,0,0-266.856,177.427Z" transform="translate(-46.439 -22.132)" fill="#2668d3"/>
    <path id="Path_91459" data-name="Path 91459" d="M-310.45,177.725a2.127,2.127,0,0,1,1.644-2.224,1.607,1.607,0,0,1,1.908,1.408,2.017,2.017,0,0,1-.938,2.065,1.592,1.592,0,0,1-1.919-.006A1.592,1.592,0,0,1-310.45,177.725Zm1.718.585a1.015,1.015,0,0,0,.919-1.26.811.811,0,0,0-1.232-.487,1.136,1.136,0,0,0-.442.548A.865.865,0,0,0-308.732,178.31Z" transform="translate(-15.355 -22.154)" fill="#2668d3"/>
  </g>
</svg>
